# xmcd
#
# Track frame offsets:
#	150
#	12360
#	26085
#	47235
#	65385
#	80495
#	96995
#	115828
#	131428
#	151078
#	171028
#	186028
#
# Disc length: 2652 seconds
#
# Revision: 0
# Processed by: cddbd v1.5.2PL0 Copyright (c) Steve Scherf et al.
# Submitted via: dBpowerAMP V4.0
#
DISCID=940a5a0c
DTITLE=Medicine Crow - Nahnah's Garden
DYEAR=1900
DGENRE=blues
TTITLE0=Medicine Wheel
TTITLE1=Nahnah's Garden
TTITLE2=Paha Sapa
TTITLE3=Hey Rip
TTITLE4=Dancing On The Devils Head
TTITLE5=Theotokion
TTITLE6=Shenandoah
TTITLE7=Don't Say Maybe
TTITLE8=Sacred Space
TTITLE9=Down The Road Kicking Stones
TTITLE10=Two By Four
TTITLE11=Too Many Generals
EXTD=Medicine Crow
EXTT0=
EXTT1=
EXTT2=
EXTT3=
EXTT4=
EXTT5=
EXTT6=
EXTT7=
EXTT8=
EXTT9=
EXTT10=
EXTT11=
PLAYORDER=
